<svg xmlns="http://www.w3.org/2000/svg" width="82.685" height="129.643" viewBox="0 0 82.685 129.643">
  <path id="Path_28" data-name="Path 28" d="M2622.319,922.251a1.875,1.875,0,0,0-2.716.231l-13.35,16.34-8.531-7.049a1.878,1.878,0,0,0-2.706.32,2.054,2.054,0,0,0,.308,2.812l9.99,8.257a1.875,1.875,0,0,0,1.2.435,1.9,1.9,0,0,0,1.471-.706l14.558-17.818A2.055,2.055,0,0,0,2622.319,922.251Zm-13.521,33.74a1.966,1.966,0,0,0-1.927,2,5.9,5.9,0,0,1-5.782,6h-51.138a5.9,5.9,0,0,1-5.781-6V848.364a5.9,5.9,0,0,1,5.781-6h51.138a5.9,5.9,0,0,1,5.782,6v61.259a1.929,1.929,0,1,0,3.855,0v-34.17a3.312,3.312,0,0,0,2.574-3.27v-8.756a3.31,3.31,0,0,0-2.574-3.269V848.364a9.838,9.838,0,0,0-9.637-10.007h-51.138a9.837,9.837,0,0,0-9.636,10.007V957.994A9.837,9.837,0,0,0,2549.951,968h51.138a9.783,9.783,0,0,0,9.557-8.714,2.044,2.044,0,0,0,.081-.572v-.72A1.968,1.968,0,0,0,2608.8,955.992Zm-23.641-107.437a2,2,0,0,0,0-4h-19.273a2,2,0,0,0,0,4Zm-14.995,108.522a5.362,5.362,0,1,0,5.358-5.562A5.47,5.47,0,0,0,2570.163,957.076Zm6.862,0a1.5,1.5,0,1,1-1.5-1.56A1.535,1.535,0,0,1,2577.024,957.076Zm21.528-45.575a2.168,2.168,0,0,0,2.124-2.208v-44.8a7.383,7.383,0,0,0-7.377-7h-34.848a7.533,7.533,0,0,0-7.377,7.663v74.7a7.532,7.532,0,0,0,7.377,7.662h30.4a2.21,2.21,0,0,0,0-4.417h-30.4a3.193,3.193,0,0,1-3.127-3.247v-74.7a3.193,3.193,0,0,1,3.127-3.247H2593.3a3.13,3.13,0,0,1,3.127,2.58v44.8A2.166,2.166,0,0,0,2598.552,911.5Z" transform="translate(-2540.315 -838.357)" fill="#3d58a6"/>
</svg>
